<?xml version="1.0" encoding="iso-8859-1"?>
<!-- Generator: Adobe Illustrator 22.0.1, SVG Export Plug-In . SVG Version: 6.00 Build 0)  -->
<svg version="1.1" id="Layer_1" xmlns="http://www.w3.org/2000/svg" xmlns:xlink="http://www.w3.org/1999/xlink" x="0px" y="0px"
	 viewBox="0 0 100.25 100.25" style="enable-background:new 0 0 100.25 100.25;" xml:space="preserve">
<path d="M94.989,48.035c0.01-0.405-0.133-0.811-0.447-1.114c-3.203-3.093-6.963-5.328-10.969-6.713
	c2.162-6.291,0.442-13.454-4.443-18.338c-4.886-4.885-12.049-6.606-18.338-4.445c-1.385-4.006-3.62-7.764-6.713-10.967
	c-0.304-0.313-0.71-0.456-1.114-0.447c-0.403-0.016-0.811,0.12-1.119,0.428C40.426,17.86,40.082,36.226,50.813,48.066L35.224,63.655
	c1.854-6.749,0.312-14.359-4.625-19.675c-0.012-0.013-0.028-0.017-0.04-0.029c-0.003-0.004-0.004-0.008-0.008-0.012
	c-0.034-0.034-0.078-0.046-0.113-0.075c-0.115-0.094-0.23-0.186-0.363-0.241c-0.079-0.034-0.163-0.038-0.245-0.057
	c-0.102-0.023-0.2-0.057-0.304-0.059c-0.123-0.003-0.242,0.029-0.363,0.057c-0.064,0.015-0.129,0.014-0.191,0.037
	c-0.148,0.055-0.279,0.147-0.407,0.249c-0.026,0.021-0.059,0.028-0.085,0.052c-0.003,0.003-0.003,0.006-0.006,0.009
	c-0.013,0.012-0.031,0.016-0.044,0.029c-3.824,3.824-5.93,8.908-5.93,14.316c0,4.903,1.747,9.53,4.921,13.203L14.439,84.439
	c-0.586,0.586-0.586,1.535,0,2.121C14.732,86.854,15.116,87,15.5,87s0.768-0.146,1.061-0.439l12.982-12.982
	c3.673,3.174,8.3,4.92,13.203,4.92c5.408,0,10.492-2.105,14.315-5.93c0.01-0.01,0.013-0.025,0.023-0.035
	c0.005-0.005,0.011-0.008,0.016-0.014c0.035-0.038,0.047-0.087,0.078-0.127c0.086-0.115,0.172-0.23,0.22-0.36
	c0.03-0.078,0.031-0.16,0.047-0.242c0.02-0.105,0.051-0.207,0.049-0.314c-0.002-0.114-0.037-0.222-0.065-0.333
	c-0.018-0.073-0.021-0.148-0.051-0.219c-0.057-0.137-0.15-0.256-0.248-0.374c-0.028-0.033-0.039-0.073-0.069-0.104
	c-0.003-0.003-0.008-0.004-0.011-0.007c-0.012-0.012-0.016-0.029-0.029-0.041c-5.317-4.936-12.927-6.478-19.676-4.624l15.589-15.589
	c5.736,5.198,13.003,7.798,20.27,7.798c7.734,0,15.469-2.944,21.356-8.832C94.868,48.846,95.004,48.438,94.989,48.035z
	 M77.009,23.991c4.112,4.11,5.549,10.132,3.685,15.375c-7.366-1.76-15.294-0.769-22.025,2.965
	c3.735-6.731,4.726-14.661,2.965-22.027C66.876,18.442,72.897,19.881,77.009,23.991z M52.934,9.657
	c8.825,10.235,8.738,25.849-0.258,35.979C43.715,35.337,43.798,19.854,52.934,9.657z M29.451,47.272
	c4.795,6.301,4.72,15.477-0.205,21.7c-2.422-3.039-3.746-6.774-3.746-10.718C25.5,54.198,26.894,50.357,29.451,47.272z
	 M53.727,71.548c-3.084,2.556-6.924,3.951-10.981,3.951c-3.943,0-7.679-1.324-10.718-3.745
	C38.251,66.829,47.425,66.753,53.727,71.548z M55.364,48.324c10.13-8.996,25.745-9.083,35.979-0.258
	C81.147,57.202,65.663,57.283,55.364,48.324z"/>
</svg>
