<?xml version="1.0" encoding="iso-8859-1"?>
<!-- Generator: Adobe Illustrator 22.0.1, SVG Export Plug-In . SVG Version: 6.00 Build 0)  -->
<svg version="1.1" id="Layer_1" xmlns="http://www.w3.org/2000/svg" xmlns:xlink="http://www.w3.org/1999/xlink" x="0px" y="0px"
	 viewBox="0 0 100.25 100.25" style="enable-background:new 0 0 100.25 100.25;" xml:space="preserve">
<g>
	<path d="M87.439,37.581l-36.5-29.334c-0.549-0.44-1.33-0.44-1.879,0l-36.5,29.334C12.206,37.866,12,38.295,12,38.75v41
		c0,0.828,0.671,1.5,1.5,1.5h73c0.828,0,1.5-0.672,1.5-1.5v-41C88,38.295,87.794,37.866,87.439,37.581z M15,41.231L37.058,59
		L15,76.768V41.231z M50,52.426L82.057,78.25H17.943L50,52.426z M62.942,59L85,41.232v35.536L62.942,59z M50,11.34l33.701,27.085
		L60.551,57.073l-9.61-7.741c-0.549-0.442-1.333-0.442-1.882,0l-9.61,7.742L16.298,38.425L50,11.34z"/>
	<path d="M41.067,34.924c1.901,2.062,7.64,7.83,7.883,8.075c0.281,0.283,0.664,0.442,1.063,0.442c0.001,0,0.001,0,0.002,0
		c0.4,0,0.783-0.161,1.064-0.445c0.241-0.244,5.939-6.007,7.837-8.055c1.023-1.105,1.585-2.587,1.583-4.173
		c-0.004-3.419-2.732-6.204-6.083-6.209c-1.734,0.038-3.316,0.739-4.436,1.962c-1.122-1.206-2.701-1.939-4.407-1.942
		c-0.002,0-0.005,0-0.007,0c-1.599,0-3.106,0.628-4.247,1.768c-1.176,1.176-1.823,2.75-1.821,4.433
		C39.501,32.359,40.059,33.831,41.067,34.924z M43.441,28.468c0.574-0.574,1.329-0.89,2.125-0.89c0.001,0,0.002,0,0.003,0
		c1.384,0.002,2.607,0.977,2.974,2.37c0.173,0.659,0.77,1.119,1.451,1.119c0.002,0,0.004,0,0.007,0
		c0.684-0.003,1.279-0.469,1.447-1.132c0.354-1.4,1.571-2.377,2.96-2.377c0.002,0,0.003,0,0.005,0
		c1.7,0.002,3.085,1.444,3.087,3.212c0,0,0,0,0,0.001c0.001,0.826-0.277,1.583-0.784,2.13c-1.375,1.485-4.919,5.093-6.706,6.907
		c-1.796-1.813-5.363-5.426-6.738-6.918c-0.498-0.539-0.772-1.291-0.773-2.115C42.498,29.896,42.833,29.076,43.441,28.468z"/>
</g>
</svg>
